<svg viewBox="0 0 400 400" xmlns="http://www.w3.org/2000/svg">
    <title>Facebook Icon Drawn</title>
    <path d="M188.000 15.965 C 88.859 26.652,28.603 96.608,15.602 216.116 C 4.589 317.344,45.270 372.202,136.132 378.652 C 183.491 382.014,184.803 380.859,181.793 338.469 C 175.622 251.567,172.742 244.161,145.076 244.061 C 130.532 244.009,127.811 242.639,125.722 234.316 C 120.881 215.027,124.622 210.093,145.089 208.779 C 169.432 207.215,177.648 196.658,174.281 171.267 C 169.311 133.790,186.044 111.374,222.000 107.345 C 239.284 105.408,240.742 119.474,224.266 129.207 C 210.000 137.634,202.796 157.804,204.695 184.000 L 206.000 202.000 226.805 203.202 L 247.609 204.405 251.161 221.202 C 255.583 242.111,254.231 243.639,228.619 246.672 C 208.016 249.112,207.866 249.231,209.834 261.566 C 210.926 268.405,214.584 292.365,217.963 314.811 C 226.788 373.441,231.065 377.948,274.444 374.344 C 356.857 367.496,396.646 300.492,384.916 188.309 C 372.451 69.095,298.176 4.088,188.000 15.965 M267.181 52.110 C 358.710 92.598,391.484 252.769,323.338 326.560 C 312.492 338.304,280.507 347.292,275.928 339.883 C 273.202 335.473,271.493 335.441,266.356 339.705 C 255.689 348.557,249.327 341.919,246.650 319.142 C 245.256 307.281,242.965 291.823,241.558 284.789 C 239.108 272.541,239.540 272.000,251.763 272.000 C 274.390 272.000,279.452 266.733,275.662 247.134 C 273.839 237.710,272.270 218.871,272.174 205.270 C 271.977 177.268,267.727 173.438,242.175 178.231 C 218.550 182.663,224.201 151.227,247.967 146.007 C 259.343 143.509,259.974 142.344,259.527 124.682 C 258.502 84.243,256.907 81.918,230.673 82.635 C 177.603 84.085,144.421 115.708,142.203 166.948 C 141.240 189.203,140.804 190.038,129.603 191.097 C 99.617 193.931,100.000 193.495,100.000 224.761 C 100.000 256.888,106.042 267.962,123.620 268.055 C 151.200 268.200,152.000 269.395,152.000 310.467 L 152.000 348.000 135.771 348.000 C 77.109 348.000,45.041 318.223,41.054 260.049 C 37.535 208.707,44.807 179.130,77.301 112.629 C 104.552 56.856,205.311 24.742,267.181 52.110"/>
</svg>