<svg viewBox="0 0 400 400" xmlns="http://www.w3.org/2000/svg">
    <title>Instagram Icon Drawn</title>
    <path d="M162.000 18.912 C 117.050 23.526,48.000 45.964,48.000 55.957 C 48.000 58.180,44.850 60.013,41.000 60.029 C -0.763 60.202,-1.077 345.776,40.661 368.423 C 96.722 398.842,350.815 376.585,364.761 340.035 C 403.033 239.723,403.315 75.113,365.269 43.364 C 348.700 29.538,215.080 13.464,162.000 18.912 M287.743 45.946 C 331.965 55.175,351.484 64.294,355.854 77.770 C 377.416 144.252,377.256 223.871,355.400 304.200 L 347.183 334.400 324.592 341.416 C 298.046 349.660,191.657 364.351,178.844 361.542 C 173.980 360.476,147.427 359.058,119.837 358.391 C 91.728 357.711,65.842 355.127,60.959 352.513 C 26.092 333.853,26.967 119.575,62.099 73.515 C 72.315 60.121,78.992 57.259,126.000 46.124 C 155.430 39.153,254.666 39.044,287.743 45.946 M297.468 76.261 C 277.530 82.188,272.214 116.624,289.988 124.722 C 305.044 131.582,331.157 122.737,336.376 109.010 C 347.857 78.814,332.464 65.858,297.468 76.261 M323.095 96.714 C 320.270 105.189,308.683 110.283,303.659 105.259 C 301.150 102.750,300.306 98.740,301.785 96.349 C 305.472 90.382,325.094 90.719,323.095 96.714 M162.288 115.797 C 93.472 143.622,66.172 250.853,119.002 285.814 C 150.324 306.542,232.802 308.295,260.000 288.810 C 305.065 256.525,303.629 136.807,257.948 117.721 C 233.408 107.467,185.282 106.500,162.288 115.797 M243.614 141.059 C 291.127 165.476,273.409 264.402,218.876 279.182 C 156.120 296.191,114.060 271.358,114.288 217.432 C 114.525 161.147,192.780 114.934,243.614 141.059"/>
</svg>