<svg viewBox="0 0 400 400" xmlns="http://www.w3.org/2000/svg">
    <title>Itunes Icon Drawn</title>
    <path d="M122.797 25.661 C -1.624 62.473,-20.723 316.746,97.267 365.559 C 200.434 408.240,321.606 378.556,356.223 302.121 C 436.638 124.565,307.090 -28.866,122.797 25.661 M272.573 57.050 C 356.273 106.573,378.113 222.546,319.667 307.120 C 295.065 342.719,272.045 353.721,220.000 354.754 C 127.045 356.598,66.400 330.839,66.400 289.512 C 66.400 281.320,64.709 277.514,61.601 278.707 C 45.136 285.025,40.731 168.018,56.078 132.000 C 68.195 103.562,84.432 82.839,106.486 67.665 C 116.564 60.732,123.004 53.624,121.464 51.133 C 119.979 48.730,120.392 47.748,122.382 48.951 C 124.372 50.154,133.200 49.625,142.000 47.776 C 177.287 40.359,253.514 45.774,272.573 57.050 M262.000 106.033 C 251.000 109.061,222.200 117.566,198.000 124.933 L 154.000 138.327 155.027 156.164 C 156.076 174.372,146.268 259.065,142.697 262.636 C 141.614 263.720,133.921 265.146,125.603 265.806 C 96.200 268.139,86.155 298.719,110.197 312.704 C 147.435 334.364,168.752 305.844,180.202 219.045 L 184.814 184.089 199.407 180.207 C 207.433 178.071,221.650 175.121,231.000 173.651 L 248.000 170.978 248.000 194.989 C 248.000 208.195,249.096 224.480,250.436 231.178 L 252.871 243.356 236.346 241.139 C 216.225 238.440,204.000 247.383,204.000 264.802 C 204.000 303.692,265.571 307.404,280.316 269.403 C 285.188 256.847,289.356 99.836,284.806 100.263 C 283.263 100.408,273.000 103.004,262.000 106.033"/>
</svg>