<svg viewBox="0 0 400 400" xmlns="http://www.w3.org/2000/svg">
    <title>Love Icon Drawn</title>
    <path d="M170.020 1.647 C 169.979 1.713,170.116 1.781,170.325 1.799 C 170.543 1.817,170.664 1.766,170.610 1.678 C 170.498 1.497,170.125 1.477,170.020 1.647 M171.507 2.058 C 171.378 2.394,171.520 2.498,171.741 2.231 C 171.866 2.081,171.873 1.981,171.762 1.912 C 171.673 1.858,171.559 1.923,171.507 2.058 M148.654 3.046 C 148.334 3.109,147.887 3.311,147.662 3.493 C 146.869 4.135,146.208 4.320,143.969 4.527 C 141.705 4.737,141.283 4.803,139.160 5.286 C 138.382 5.463,137.484 5.549,136.685 5.524 C 135.935 5.500,135.106 5.574,134.624 5.707 C 134.180 5.829,133.232 5.971,132.517 6.023 C 131.802 6.075,130.566 6.290,129.769 6.502 C 128.972 6.713,127.702 6.951,126.947 7.030 C 124.963 7.237,124.327 7.504,124.322 8.133 C 124.317 8.947,123.738 9.746,123.079 9.850 C 121.596 10.083,120.660 11.298,121.963 11.298 C 122.494 11.298,122.748 11.551,122.748 12.081 C 122.748 12.549,122.398 12.976,122.012 12.979 C 121.871 12.980,121.206 13.221,120.534 13.516 C 119.734 13.866,119.180 14.022,118.926 13.967 C 118.182 13.806,114.805 15.844,114.536 16.614 C 114.357 17.127,113.308 17.710,112.564 17.710 C 111.892 17.710,110.656 18.582,110.508 19.160 C 110.416 19.516,110.236 19.681,109.700 19.900 C 108.758 20.285,107.770 21.527,108.406 21.527 C 108.495 21.527,108.530 21.588,108.483 21.663 C 108.305 21.951,108.924 21.980,109.450 21.708 C 110.773 21.026,112.315 20.989,112.845 21.628 C 113.046 21.871,112.770 22.290,112.409 22.290 C 112.285 22.290,111.795 22.521,111.321 22.804 C 110.846 23.086,109.916 23.618,109.254 23.987 C 108.593 24.355,107.788 24.911,107.467 25.223 C 107.146 25.534,106.608 25.929,106.271 26.101 C 105.611 26.438,105.344 26.799,105.343 27.356 C 105.342 27.616,104.708 28.299,102.958 29.924 C 98.179 34.362,95.524 37.210,94.766 38.709 C 94.471 39.293,94.043 39.943,93.814 40.153 C 93.586 40.363,92.983 41.079,92.474 41.744 C 91.965 42.410,90.989 43.545,90.304 44.268 C 88.769 45.887,88.489 46.301,88.606 46.770 C 88.677 47.052,88.555 47.281,88.051 47.815 C 86.410 49.554,85.221 51.435,85.199 52.326 C 85.182 53.038,84.375 53.685,83.775 53.468 C 83.046 53.205,82.949 53.273,81.908 54.773 C 81.405 55.499,80.639 56.440,80.206 56.864 C 79.774 57.287,79.266 57.943,79.078 58.321 C 78.890 58.698,78.198 59.608,77.540 60.341 C 76.882 61.075,76.195 61.968,76.013 62.326 C 75.831 62.684,75.459 63.252,75.187 63.588 C 74.916 63.924,74.553 64.478,74.381 64.819 C 74.209 65.161,73.956 65.534,73.818 65.648 C 73.680 65.762,73.460 66.067,73.328 66.325 C 73.196 66.583,72.523 67.653,71.831 68.702 C 71.139 69.752,70.393 70.969,70.173 71.407 C 69.952 71.844,69.575 72.428,69.336 72.704 C 69.096 72.980,68.812 73.373,68.704 73.578 C 68.597 73.782,68.016 74.538,67.415 75.257 C 66.113 76.814,65.565 77.718,64.265 80.458 C 63.727 81.592,62.960 83.103,62.560 83.817 C 61.759 85.246,61.719 85.420,62.076 85.930 C 62.617 86.701,64.197 86.651,65.072 85.835 C 65.553 85.386,65.768 85.616,65.581 86.377 C 65.311 87.470,65.311 87.649,65.578 87.945 C 65.727 88.110,65.976 88.244,66.131 88.244 C 66.533 88.244,66.496 88.881,66.062 89.416 C 65.870 89.653,65.596 90.032,65.455 90.257 C 65.299 90.505,65.033 90.685,64.779 90.715 C 64.283 90.772,64.166 90.984,63.504 93.029 C 63.102 94.269,63.047 94.597,63.188 94.907 C 63.402 95.376,63.408 95.921,63.201 96.127 C 62.963 96.365,63.180 96.754,63.609 96.862 C 64.186 97.007,64.004 97.440,63.281 97.641 C 62.207 97.940,61.973 99.139,62.895 99.616 C 63.507 99.932,64.006 99.906,64.478 99.535 L 64.876 99.222 64.964 99.573 C 65.486 101.657,65.485 101.769,64.926 103.492 C 64.636 104.384,64.347 105.630,64.284 106.261 C 64.220 106.892,64.055 107.627,63.916 107.895 C 63.770 108.177,63.664 108.741,63.664 109.235 C 63.664 109.705,63.566 110.584,63.446 111.190 C 63.327 111.795,63.149 113.252,63.052 114.427 C 62.954 115.603,62.748 116.977,62.593 117.481 C 62.251 118.592,61.655 121.266,61.599 121.939 C 61.563 122.374,61.484 122.759,61.068 124.504 L 60.959 124.962 60.692 124.313 C 60.191 123.096,59.413 123.769,59.237 125.571 C 59.105 126.912,59.129 126.875,58.337 127.020 C 57.351 127.200,57.339 127.169,57.253 124.319 L 57.176 121.756 56.794 121.702 C 56.294 121.632,56.187 121.434,56.349 120.870 C 56.548 120.177,56.376 119.661,55.988 119.785 C 54.433 120.278,54.329 120.427,54.383 122.083 C 54.426 123.392,54.440 123.438,54.856 123.637 C 55.811 124.094,55.779 125.587,54.792 126.564 L 54.184 127.166 54.220 128.395 L 54.257 129.624 53.731 130.068 C 52.744 130.904,51.796 130.799,51.967 129.872 C 52.232 128.429,52.247 127.851,52.023 127.665 C 51.669 127.372,51.441 127.776,51.294 128.959 C 51.185 129.842,51.100 130.046,50.703 130.377 L 50.239 130.763 50.162 132.901 C 50.052 135.982,50.044 136.123,49.907 137.614 C 49.812 138.648,49.831 139.063,49.988 139.370 C 50.276 139.933,50.421 140.926,50.441 142.473 C 50.452 143.311,50.528 143.872,50.649 143.992 C 50.754 144.097,50.840 144.416,50.840 144.702 C 50.840 144.987,50.966 145.402,51.120 145.625 C 51.684 146.442,52.671 149.788,52.883 151.603 C 52.937 152.065,53.200 153.216,53.468 154.160 C 53.998 156.033,53.935 156.614,53.277 155.908 C 52.260 154.815,51.398 156.910,52.137 158.679 C 52.404 159.316,52.439 160.242,52.203 160.388 C 51.687 160.708,52.201 162.962,53.160 164.580 C 53.342 164.886,53.469 165.351,53.458 165.668 C 53.444 166.072,53.562 166.378,53.895 166.796 C 54.241 167.232,54.351 167.528,54.351 168.024 C 54.351 169.044,54.819 169.914,55.951 171.000 C 56.516 171.542,57.153 172.294,57.368 172.672 C 57.583 173.050,57.981 173.599,58.252 173.893 C 58.737 174.417,59.389 175.555,59.389 175.875 C 59.389 176.205,60.930 177.984,61.376 178.169 C 61.947 178.405,62.584 179.141,62.694 179.691 C 62.739 179.918,63.081 180.509,63.453 181.006 C 63.825 181.502,64.203 182.182,64.294 182.516 C 64.519 183.348,65.661 185.093,66.645 186.107 C 67.093 186.569,67.722 187.330,68.043 187.799 C 69.734 190.269,69.971 190.562,70.483 190.806 C 71.061 191.082,71.544 190.802,71.352 190.302 C 71.201 189.909,71.590 189.466,72.087 189.466 C 72.577 189.466,73.008 189.836,74.456 191.502 C 75.715 192.952,76.475 191.854,75.347 190.214 C 74.814 189.439,74.744 189.157,75.058 189.052 C 75.142 189.024,75.962 189.714,76.881 190.587 C 77.799 191.459,78.782 192.368,79.067 192.606 C 79.351 192.844,79.680 193.269,79.797 193.551 C 80.800 195.950,87.063 202.435,88.389 202.446 C 89.284 202.454,90.158 203.079,92.482 205.373 C 94.745 207.606,94.828 207.670,95.345 207.587 C 95.638 207.539,95.878 207.564,95.878 207.643 C 95.878 207.722,95.748 207.786,95.589 207.786 C 95.173 207.786,95.097 208.140,95.393 208.693 C 95.654 209.179,96.233 209.825,100.170 214.020 C 101.378 215.307,102.461 216.492,102.576 216.653 C 102.981 217.221,102.196 216.985,101.329 216.279 C 99.833 215.060,99.031 215.096,99.703 216.351 C 99.818 216.566,99.810 216.798,99.675 217.171 C 99.467 217.749,99.763 218.670,100.321 219.174 C 100.474 219.313,100.675 219.656,100.768 219.937 C 100.874 220.260,101.447 220.929,102.318 221.749 C 103.078 222.465,103.932 223.376,104.215 223.775 C 104.782 224.572,106.690 226.334,107.141 226.478 C 107.298 226.527,107.573 226.828,107.751 227.146 C 108.156 227.865,109.104 228.855,109.389 228.855 C 109.506 228.855,109.788 229.027,110.014 229.237 C 110.583 229.764,112.449 229.567,112.983 228.924 C 113.363 228.467,114.009 229.194,115.360 231.598 C 116.898 234.336,116.841 234.203,116.660 234.600 C 116.373 235.230,116.464 235.667,117.023 236.336 C 117.317 236.688,117.557 237.055,117.558 237.152 C 117.558 237.249,117.754 237.706,117.994 238.168 C 118.235 238.630,118.472 239.181,118.523 239.394 C 118.573 239.606,119.069 240.495,119.623 241.370 C 120.178 242.245,120.721 243.176,120.831 243.438 C 121.236 244.406,122.164 245.505,122.888 245.872 C 124.015 246.443,124.796 247.398,126.324 250.076 C 126.635 250.622,127.056 251.344,127.259 251.679 C 127.462 252.015,127.631 252.496,127.633 252.748 C 127.639 253.255,127.934 254.201,128.189 254.524 C 128.279 254.639,128.583 255.172,128.866 255.709 C 129.307 256.547,129.531 256.783,130.453 257.371 C 131.674 258.151,131.750 258.236,131.753 258.822 C 131.756 259.365,132.329 260.495,133.090 261.459 C 133.417 261.874,133.878 262.545,134.115 262.949 C 134.357 263.364,134.903 263.949,135.364 264.290 C 136.027 264.780,136.183 264.980,136.183 265.337 C 136.183 265.813,136.524 266.260,136.888 266.260 C 137.011 266.260,137.442 266.568,137.846 266.946 C 138.249 267.323,138.795 267.675,139.057 267.727 C 139.320 267.780,139.614 267.918,139.710 268.034 C 139.806 268.150,140.076 268.244,140.310 268.244 C 140.737 268.244,141.093 268.633,143.087 271.274 C 143.362 271.639,143.835 272.097,144.137 272.292 C 144.750 272.687,145.727 274.058,145.885 274.744 C 146.169 275.978,146.782 277.275,147.937 279.084 C 148.549 280.042,149.771 282.509,149.771 282.785 C 149.771 282.911,150.038 283.349,150.364 283.759 C 150.690 284.169,151.071 284.779,151.211 285.115 C 151.351 285.450,151.699 285.966,151.985 286.260 C 152.463 286.752,153.063 288.124,153.426 289.559 C 153.533 289.981,153.740 290.441,154.590 292.137 C 155.042 293.039,155.105 293.135,156.670 295.295 C 156.979 295.723,157.275 296.321,157.326 296.624 C 157.378 296.927,157.627 297.760,157.880 298.473 C 159.857 304.056,159.804 303.732,158.722 303.597 C 157.155 303.401,157.013 304.028,158.322 305.369 C 159.200 306.269,159.229 306.325,159.010 306.659 C 158.843 306.914,158.805 307.244,158.870 307.893 C 158.948 308.683,158.915 308.836,158.563 309.304 C 158.056 309.979,158.066 310.327,158.626 311.603 C 158.878 312.177,159.084 312.723,159.084 312.817 C 159.084 312.911,159.252 313.319,159.457 313.724 L 159.831 314.461 160.804 314.539 C 162.625 314.685,162.801 315.342,161.948 318.822 C 161.642 320.070,161.637 320.192,161.864 320.578 C 161.999 320.806,162.158 321.251,162.217 321.567 C 162.289 321.950,162.472 322.246,162.765 322.455 C 163.105 322.697,163.206 322.890,163.206 323.293 C 163.206 323.635,163.325 323.933,163.550 324.152 C 163.739 324.337,163.997 324.697,164.124 324.954 C 164.440 325.594,164.991 325.585,165.431 324.932 L 165.760 324.444 165.925 324.806 C 166.016 325.005,166.196 325.671,166.326 326.286 C 166.456 326.901,166.692 327.817,166.850 328.321 C 167.008 328.824,167.284 330.095,167.464 331.145 C 167.644 332.195,167.863 333.431,167.951 333.893 C 168.155 334.964,168.379 336.426,168.547 337.786 C 168.620 338.374,168.854 340.126,169.067 341.679 C 169.281 343.233,169.458 344.823,169.461 345.212 C 169.465 345.812,169.560 346.035,170.083 346.663 C 171.389 348.234,172.143 350.696,171.954 352.773 C 171.869 353.704,171.876 353.725,172.638 354.864 C 174.318 357.376,175.156 361.566,174.520 364.275 C 174.304 365.195,174.308 365.811,174.531 365.763 C 174.710 365.725,174.796 365.927,175.106 367.123 C 175.404 368.271,176.336 368.832,176.336 367.863 C 176.336 367.757,176.447 367.579,176.582 367.466 C 177.166 366.982,177.670 368.292,178.171 371.603 C 178.553 374.122,178.599 374.608,178.518 375.291 C 178.387 376.403,180.293 379.295,181.414 379.686 C 182.591 380.096,182.937 380.932,182.051 381.225 C 181.121 381.532,181.099 381.855,181.880 383.832 C 182.258 384.789,182.653 386.013,182.759 386.551 C 182.983 387.697,183.295 388.091,183.889 387.977 C 184.227 387.912,184.417 388.018,184.947 388.567 C 185.301 388.936,185.776 389.386,186.002 389.569 C 186.228 389.751,186.412 390.054,186.412 390.242 C 186.412 390.430,186.615 390.900,186.863 391.286 C 187.757 392.679,187.831 393.008,187.483 394.040 C 187.117 395.126,187.100 395.472,187.399 395.721 C 187.787 396.043,187.984 395.817,188.397 394.581 C 188.878 393.139,189.087 392.960,189.824 393.357 C 190.381 393.657,190.840 393.519,190.840 393.053 C 190.840 392.487,191.257 392.527,192.609 393.223 C 194.249 394.068,194.504 394.330,194.504 395.179 C 194.504 396.042,194.744 396.312,195.561 396.367 C 196.167 396.408,196.285 396.482,196.717 397.097 C 197.612 398.370,199.050 398.452,199.292 397.244 C 199.371 396.846,199.445 396.794,199.927 396.794 C 201.124 396.794,201.410 397.125,201.735 398.888 C 201.909 399.832,201.959 399.924,202.299 399.924 C 202.722 399.924,202.763 399.546,202.530 397.771 C 202.412 396.868,202.423 396.823,202.881 396.321 C 203.141 396.035,203.466 395.673,203.603 395.517 C 203.810 395.280,203.974 395.250,204.560 395.340 C 205.543 395.490,205.987 395.494,206.299 395.354 C 206.512 395.259,206.614 395.348,206.800 395.792 C 207.181 396.705,208.092 396.534,208.092 395.550 C 208.092 395.388,208.364 394.972,208.697 394.626 C 209.470 393.821,209.697 392.855,209.528 391.090 C 209.388 389.620,209.405 389.484,209.776 389.083 C 209.932 388.914,210.150 388.525,210.259 388.218 C 210.383 387.868,210.716 387.466,211.145 387.144 C 211.634 386.777,211.891 386.444,212.037 385.986 C 212.255 385.305,212.542 385.181,213.150 385.507 C 213.657 385.779,213.893 385.433,213.893 384.416 C 213.893 383.373,213.694 382.857,213.189 382.586 C 212.989 382.479,212.824 382.295,212.824 382.178 C 212.824 381.642,213.366 380.351,213.711 380.064 C 214.032 379.798,214.080 379.657,214.005 379.198 C 213.954 378.883,214.021 378.270,214.161 377.760 C 214.468 376.648,214.495 374.009,214.214 372.719 C 213.967 371.585,214.061 371.104,214.576 370.869 C 215.172 370.598,216.898 370.229,217.571 370.229 C 217.905 370.229,218.570 370.065,219.050 369.865 C 219.531 369.665,220.164 369.452,220.458 369.392 C 221.923 369.095,224.140 367.585,224.680 366.517 C 224.900 366.082,225.377 365.308,225.740 364.798 C 226.103 364.288,226.685 363.258,227.034 362.508 C 227.383 361.758,227.961 360.527,228.320 359.771 C 229.462 357.365,230.526 353.296,230.991 349.555 C 231.189 347.958,231.076 342.376,230.832 341.738 C 230.739 341.496,230.531 340.198,230.369 338.855 C 230.208 337.511,229.977 336.172,229.857 335.878 C 229.730 335.565,229.610 334.584,229.568 333.511 C 229.529 332.504,229.395 331.336,229.270 330.916 C 228.365 327.884,228.411 325.547,229.420 323.397 C 229.700 322.801,229.847 322.788,230.710 323.281 C 232.017 324.028,232.529 323.551,233.346 320.823 C 233.399 320.646,233.675 320.289,233.959 320.030 C 234.243 319.772,234.600 319.350,234.752 319.093 C 235.279 318.201,235.652 318.593,235.324 319.695 C 235.022 320.710,235.355 321.317,235.872 320.694 C 236.116 320.400,236.876 318.259,237.311 316.641 C 237.502 315.927,237.912 314.811,238.221 314.159 C 238.531 313.508,238.925 312.597,239.098 312.135 C 239.431 311.246,239.594 311.181,239.766 311.868 C 239.966 312.662,240.984 312.973,241.855 312.507 C 242.337 312.249,242.393 312.484,242.008 313.153 C 241.814 313.491,241.530 314.122,241.378 314.555 C 241.226 314.989,240.888 315.849,240.627 316.466 C 240.366 317.084,240.153 317.706,240.153 317.848 C 240.153 317.991,239.878 318.676,239.542 319.371 C 238.808 320.887,238.797 321.128,239.398 322.284 C 239.896 323.239,239.905 323.663,239.458 324.885 C 239.351 325.179,239.224 325.596,239.177 325.812 C 239.131 326.027,238.922 326.295,238.714 326.406 C 238.507 326.517,238.225 326.890,238.089 327.235 C 237.953 327.580,237.667 328.118,237.453 328.431 C 237.146 328.879,237.085 329.105,237.166 329.500 C 237.437 330.814,237.430 331.120,237.114 331.835 C 236.938 332.233,236.792 332.669,236.789 332.806 C 236.786 332.942,236.584 333.558,236.341 334.175 C 235.856 335.403,235.875 335.725,236.429 335.725 C 236.745 335.725,236.794 335.797,236.794 336.264 C 236.794 337.503,237.445 337.117,238.298 335.373 C 239.146 333.639,239.693 333.125,240.305 333.487 C 240.648 333.690,240.830 333.716,241.056 333.595 C 241.513 333.350,241.527 333.373,241.527 334.339 C 241.527 335.582,241.627 335.820,242.004 335.479 C 242.222 335.281,242.290 335.006,242.290 334.320 C 242.290 333.789,242.391 333.224,242.537 332.942 C 242.799 332.436,242.868 331.105,242.676 330.276 C 242.571 329.820,242.601 329.771,243.152 329.509 C 243.689 329.254,243.740 329.177,243.740 328.623 C 243.740 328.195,243.865 327.853,244.160 327.467 C 244.699 326.763,244.690 326.576,244.094 326.086 L 243.604 325.684 243.980 324.564 C 244.284 323.657,244.456 323.377,244.888 323.091 C 245.789 322.493,245.954 322.307,245.954 321.895 C 245.954 321.677,246.087 321.311,246.249 321.083 C 246.412 320.855,246.592 320.466,246.651 320.220 C 246.819 319.508,248.261 316.625,248.784 315.954 C 249.525 315.003,251.065 312.086,251.515 310.782 C 251.739 310.133,252.143 309.302,252.412 308.935 C 253.776 307.072,255.420 304.507,255.420 304.241 C 255.420 303.818,256.103 302.799,256.979 301.915 C 257.482 301.408,257.994 300.798,258.117 300.561 C 258.240 300.323,258.559 299.832,258.827 299.469 C 259.094 299.107,259.622 298.250,260.000 297.567 C 261.498 294.856,261.622 294.700,262.656 294.206 C 263.699 293.708,265.793 291.749,266.117 290.968 C 266.320 290.477,266.590 290.433,267.379 290.762 C 267.780 290.930,268.030 290.950,268.323 290.839 C 269.279 290.475,269.442 290.901,268.702 291.832 C 268.450 292.149,268.244 292.491,268.244 292.593 C 268.244 292.694,268.108 292.901,267.941 293.052 C 267.774 293.203,267.528 293.712,267.395 294.182 C 267.262 294.653,266.919 295.416,266.633 295.878 C 266.346 296.340,265.922 297.052,265.690 297.462 C 265.457 297.871,264.703 299.053,264.013 300.089 C 263.323 301.124,262.555 302.377,262.305 302.872 C 261.795 303.881,260.089 306.521,259.435 307.311 C 258.568 308.360,258.381 309.008,258.947 309.008 C 259.265 309.008,260.112 308.270,260.405 307.738 C 260.489 307.585,260.750 307.439,260.984 307.413 C 261.477 307.359,261.622 307.175,261.833 306.336 C 261.918 306.000,262.084 305.553,262.203 305.344 C 262.894 304.122,263.597 303.020,264.199 302.214 C 264.576 301.710,265.062 301.032,265.280 300.707 C 265.498 300.382,266.065 299.690,266.540 299.169 C 267.016 298.649,267.524 298.022,267.670 297.776 C 267.816 297.530,268.159 297.042,268.433 296.693 C 268.707 296.343,269.103 295.769,269.313 295.417 C 269.523 295.064,269.882 294.591,270.112 294.366 C 270.341 294.140,270.622 293.684,270.736 293.352 C 270.895 292.886,271.097 292.666,271.616 292.392 C 272.600 291.872,272.732 291.718,273.727 289.939 C 275.499 286.769,277.252 282.222,277.252 280.797 C 277.252 280.289,277.375 279.813,277.634 279.328 C 277.844 278.933,278.015 278.390,278.016 278.122 C 278.016 277.853,278.228 277.232,278.486 276.741 C 278.818 276.112,278.928 275.735,278.860 275.463 C 278.789 275.181,278.936 274.747,279.410 273.837 C 279.766 273.154,280.143 272.429,280.249 272.226 C 280.518 271.709,280.270 271.298,279.689 271.298 C 279.075 271.298,279.099 270.918,279.733 270.593 C 280.612 270.143,280.570 269.660,279.609 269.202 C 279.070 268.944,279.016 268.823,279.072 267.988 C 279.097 267.631,279.021 267.458,278.786 267.332 C 277.992 266.907,277.643 267.835,277.266 271.374 C 277.177 272.209,277.010 272.832,276.736 273.343 C 276.516 273.755,276.336 274.209,276.336 274.353 C 276.336 274.497,276.198 274.790,276.031 275.003 C 275.842 275.243,275.725 275.623,275.725 275.994 C 275.725 277.264,275.262 277.863,274.277 277.863 C 273.804 277.863,273.030 278.649,272.894 279.268 C 272.732 280.005,272.245 281.069,272.070 281.069 C 271.352 281.069,270.654 276.655,271.094 274.896 C 271.456 273.446,273.080 270.565,274.341 269.132 C 275.569 267.737,276.177 265.769,275.407 265.679 C 274.917 265.622,274.801 265.762,273.944 267.434 C 272.923 269.428,272.535 269.768,271.980 269.155 C 271.731 268.880,271.721 268.781,271.892 268.308 C 272.145 267.609,271.911 267.270,271.273 267.410 C 270.676 267.541,270.686 267.110,271.287 266.799 C 271.860 266.503,271.994 266.064,271.742 265.302 C 271.525 264.643,271.486 264.799,272.582 261.933 C 272.802 261.359,273.245 260.568,273.566 260.177 C 273.887 259.786,274.344 259.122,274.582 258.702 C 274.820 258.282,275.249 257.723,275.535 257.458 C 275.880 257.140,276.106 256.753,276.204 256.313 C 276.299 255.887,276.560 255.430,276.931 255.038 C 277.249 254.702,277.594 254.214,277.696 253.953 C 277.798 253.692,278.084 253.329,278.330 253.147 C 278.635 252.921,278.779 252.682,278.779 252.400 C 278.779 252.098,278.985 251.795,279.542 251.284 C 280.133 250.740,280.305 250.478,280.305 250.123 C 280.305 249.604,281.127 247.966,282.007 246.731 C 282.331 246.276,282.595 245.845,282.595 245.773 C 282.595 245.667,283.842 243.516,285.189 241.299 C 285.394 240.962,285.391 240.898,285.158 240.665 C 284.581 240.088,283.425 240.992,281.951 243.171 L 281.231 244.236 280.385 244.306 C 279.774 244.357,279.434 244.476,279.159 244.734 C 278.695 245.170,278.683 245.079,279.099 244.281 C 279.988 242.574,280.489 239.995,280.126 238.991 C 279.972 238.566,279.992 238.400,280.265 237.835 C 280.440 237.472,280.743 236.806,280.938 236.353 C 281.187 235.777,281.462 235.425,281.858 235.175 C 282.168 234.978,282.616 234.567,282.853 234.260 C 283.089 233.954,283.471 233.503,283.702 233.258 C 284.034 232.907,284.122 232.668,284.122 232.116 C 284.122 231.594,284.219 231.304,284.504 230.965 C 284.714 230.715,284.885 230.344,284.885 230.141 C 284.885 229.922,284.975 229.771,285.104 229.771 C 285.452 229.771,285.801 230.216,285.802 230.660 C 285.806 232.564,286.362 232.588,287.536 230.734 C 288.473 229.254,289.350 228.819,289.553 229.733 C 289.605 229.964,289.690 230.290,289.743 230.458 C 289.836 230.754,289.864 231.009,289.973 232.560 C 290.012 233.106,290.131 233.400,290.452 233.734 L 290.879 234.180 290.181 235.373 C 289.223 237.007,288.815 237.955,288.685 238.855 C 288.624 239.275,288.525 239.912,288.465 240.271 C 288.308 241.208,289.407 242.086,289.847 241.374 C 289.974 241.170,290.478 241.181,291.088 241.402 C 291.797 241.658,292.304 241.390,292.657 240.574 C 292.811 240.216,293.084 239.793,293.263 239.633 C 293.441 239.473,293.588 239.270,293.588 239.183 C 293.588 239.096,293.752 238.780,293.952 238.481 C 294.248 238.040,294.334 237.664,294.412 236.470 C 294.528 234.674,294.382 234.428,293.505 234.945 C 291.931 235.874,292.121 234.089,293.767 232.490 C 294.172 232.095,294.504 231.634,294.504 231.465 C 294.504 230.710,295.710 230.143,296.198 230.668 C 296.645 231.148,297.042 231.071,297.481 230.420 C 297.694 230.105,298.090 229.561,298.361 229.211 C 299.738 227.435,300.312 226.567,300.608 225.813 C 300.786 225.358,301.148 224.713,301.411 224.381 C 302.767 222.669,303.080 222.089,303.421 220.652 C 303.688 219.526,304.319 218.296,305.221 217.141 C 305.701 216.527,305.904 216.087,306.569 214.230 C 306.863 213.408,307.164 212.946,308.053 211.945 C 308.326 211.638,308.551 211.247,308.552 211.075 C 308.554 210.904,308.760 210.461,309.010 210.092 C 309.261 209.722,309.466 209.354,309.466 209.274 C 309.466 209.194,309.809 208.718,310.229 208.215 C 310.649 207.713,310.992 207.172,310.992 207.015 C 310.992 206.857,311.233 206.487,311.527 206.193 C 312.145 205.576,312.177 205.379,311.750 204.837 L 311.439 204.442 311.788 204.224 C 311.980 204.104,312.321 203.963,312.545 203.911 C 312.810 203.850,313.105 203.574,313.385 203.123 C 313.622 202.742,314.109 202.043,314.466 201.570 C 315.171 200.636,315.295 199.995,314.864 199.519 C 314.508 199.125,314.835 198.779,315.565 198.779 C 315.961 198.779,316.219 198.676,316.428 198.435 C 317.114 197.645,317.685 196.665,317.918 195.878 C 318.054 195.416,318.334 194.763,318.541 194.427 C 318.747 194.092,319.065 193.542,319.247 193.206 C 319.429 192.870,319.805 192.277,320.081 191.888 C 320.358 191.500,320.701 190.950,320.844 190.667 C 321.123 190.115,321.663 189.466,321.842 189.466 C 322.123 189.466,322.115 190.026,321.825 190.581 C 321.448 191.305,321.522 191.772,322.057 192.059 C 322.269 192.172,322.443 192.320,322.443 192.387 C 322.443 192.793,323.099 192.837,323.496 192.458 C 323.872 192.097,323.949 192.080,324.400 192.250 C 325.048 192.495,325.375 192.286,325.532 191.531 C 325.598 191.213,325.858 190.718,326.109 190.433 C 327.308 189.066,325.921 187.145,323.916 187.395 C 322.763 187.539,322.740 187.384,323.502 184.654 C 323.843 183.432,324.122 182.360,324.122 182.272 C 324.122 182.012,325.180 179.681,325.504 179.225 C 325.859 178.727,325.889 178.125,325.573 177.863 C 325.113 177.481,325.290 177.105,325.911 177.142 C 326.606 177.183,327.085 176.439,327.621 174.482 C 328.242 172.217,327.433 172.066,326.629 174.297 C 326.127 175.692,325.802 176.085,325.802 175.299 C 325.802 174.703,325.590 174.554,324.558 174.427 C 323.772 174.329,323.689 174.282,323.611 173.896 C 323.463 173.157,323.142 172.977,321.969 172.977 C 320.614 172.977,320.560 172.849,321.278 171.320 C 321.912 169.968,321.954 169.623,321.527 169.237 C 320.769 168.551,321.998 166.530,323.385 166.182 C 323.989 166.030,325.131 164.758,325.493 163.832 C 325.670 163.379,325.949 162.837,326.114 162.629 C 326.278 162.420,326.412 162.188,326.412 162.113 C 326.412 162.039,326.967 160.832,327.645 159.432 C 328.324 158.032,328.879 156.780,328.880 156.649 C 328.881 156.519,328.833 156.064,328.774 155.638 C 328.691 155.042,328.727 154.746,328.932 154.349 C 329.079 154.066,329.355 153.384,329.546 152.833 C 329.737 152.283,330.179 151.221,330.528 150.474 C 331.437 148.529,332.694 145.133,333.556 142.290 C 333.722 141.744,334.239 140.095,334.705 138.626 C 335.172 137.156,335.658 135.546,335.785 135.047 C 335.913 134.547,336.158 133.949,336.329 133.717 C 336.502 133.483,336.641 133.059,336.641 132.766 C 336.641 131.971,337.172 129.894,338.080 127.132 C 339.368 123.215,339.994 120.881,339.998 119.982 C 339.999 119.666,340.129 119.266,340.304 119.044 C 340.509 118.784,340.735 117.968,340.996 116.543 C 341.210 115.379,341.489 114.098,341.617 113.696 C 341.897 112.814,341.778 111.740,341.358 111.360 C 340.979 111.017,340.971 110.382,341.345 110.382 C 341.954 110.382,342.168 110.021,342.289 108.791 C 342.451 107.137,343.363 106.116,344.686 106.109 C 345.277 106.106,345.392 106.268,345.493 107.252 C 345.561 107.906,345.621 108.018,345.908 108.032 C 346.492 108.062,346.780 106.730,346.337 106.054 C 345.961 105.479,345.993 103.238,346.402 101.527 C 346.980 99.113,346.093 98.237,344.637 99.781 C 344.061 100.392,343.883 100.421,343.415 99.981 C 342.890 99.488,342.596 99.698,342.592 100.568 C 342.590 100.969,342.453 101.597,342.287 101.963 C 342.121 102.329,341.985 102.864,341.985 103.151 C 341.985 103.439,341.877 103.929,341.746 104.242 C 341.355 105.173,341.226 104.568,341.208 101.733 C 341.198 100.120,341.107 98.733,340.963 98.015 C 340.652 96.458,340.743 95.002,341.186 94.437 C 341.747 93.724,341.684 92.041,341.080 91.611 C 340.220 90.999,340.089 89.344,340.521 84.587 C 340.654 83.122,340.763 81.832,340.763 81.721 C 340.763 81.611,340.924 81.447,341.120 81.358 C 341.316 81.268,341.593 80.998,341.736 80.756 C 341.919 80.446,342.161 80.287,342.562 80.215 C 343.355 80.072,343.511 79.902,343.512 79.180 C 343.514 78.005,343.771 77.405,344.271 77.405 C 345.176 77.405,345.429 76.621,344.885 75.496 C 344.723 75.160,344.588 74.763,344.585 74.612 C 344.576 74.128,344.004 73.192,343.465 72.781 C 342.937 72.378,342.595 71.528,342.595 70.613 C 342.595 69.921,342.040 69.061,341.346 68.678 C 340.604 68.268,340.071 67.556,339.832 66.655 C 339.741 66.312,339.574 65.814,339.461 65.550 C 339.288 65.144,339.290 65.025,339.471 64.787 C 339.797 64.355,339.736 63.448,339.312 62.440 C 339.101 61.939,338.853 61.178,338.761 60.747 C 338.653 60.242,338.417 59.768,338.095 59.410 C 337.383 58.616,337.100 57.987,335.986 54.731 C 335.441 53.137,334.918 51.639,334.825 51.402 C 334.653 50.964,334.593 50.076,334.735 50.076 C 334.778 50.076,334.939 50.155,335.092 50.250 C 335.317 50.391,335.512 50.342,336.120 49.990 C 337.391 49.255,337.380 49.143,335.790 46.844 C 335.167 45.942,334.656 45.148,334.656 45.079 C 334.656 45.010,334.347 44.457,333.969 43.850 C 333.592 43.243,333.282 42.685,333.282 42.610 C 333.282 42.457,331.716 40.915,331.354 40.713 C 331.217 40.636,330.859 40.646,330.503 40.737 C 329.592 40.968,328.715 40.101,328.481 38.737 C 328.426 38.421,328.191 37.940,327.959 37.668 C 327.726 37.397,327.436 37.029,327.315 36.849 C 327.194 36.670,326.405 35.903,325.563 35.145 C 324.721 34.387,323.899 33.504,323.736 33.181 C 323.573 32.859,323.198 32.342,322.903 32.032 C 321.437 30.491,320.656 29.779,320.346 29.700 C 320.133 29.646,319.970 29.456,319.912 29.196 C 319.861 28.967,319.790 28.669,319.754 28.535 C 319.718 28.401,319.330 28.052,318.890 27.759 C 318.451 27.467,317.946 27.130,317.768 27.011 C 316.767 26.341,315.592 25.350,314.472 24.232 C 313.776 23.536,312.725 22.628,312.137 22.213 C 311.550 21.798,310.859 21.251,310.602 20.996 C 310.346 20.742,309.865 20.358,309.534 20.143 C 309.202 19.928,308.553 19.506,308.092 19.205 C 307.630 18.904,306.965 18.514,306.613 18.339 C 305.774 17.919,305.739 17.834,306.129 17.173 C 306.427 16.667,306.505 16.622,306.932 16.715 C 307.192 16.771,307.885 16.907,308.473 17.017 C 309.061 17.127,310.187 17.437,310.976 17.705 C 312.967 18.383,313.417 17.831,311.703 16.814 C 311.184 16.506,310.660 16.046,310.451 15.714 C 310.223 15.352,309.898 15.079,309.567 14.970 C 309.280 14.875,308.923 14.663,308.773 14.498 C 308.401 14.086,308.109 14.121,307.274 14.673 L 306.557 15.148 305.225 14.736 C 303.322 14.146,300.816 12.900,299.981 12.127 L 299.275 11.474 297.984 11.519 C 297.275 11.544,296.549 11.642,296.372 11.736 C 295.799 12.043,293.449 11.550,292.451 10.913 C 290.547 9.697,286.781 9.100,285.690 9.841 C 285.173 10.193,284.979 10.229,283.591 10.227 C 281.758 10.224,281.712 10.200,281.651 9.234 C 281.607 8.541,281.559 8.454,281.107 8.255 C 280.834 8.135,280.611 7.925,280.611 7.788 C 280.611 7.211,280.244 6.970,279.678 7.175 C 279.196 7.349,279.102 7.331,278.559 6.963 C 278.013 6.592,277.941 6.579,277.647 6.794 C 276.753 7.448,276.489 7.296,276.489 6.129 C 276.489 4.829,276.251 4.595,274.885 4.554 C 274.068 4.530,273.717 4.588,273.392 4.801 C 273.046 5.028,272.779 5.063,271.942 4.992 C 271.378 4.944,270.244 4.976,269.423 5.062 C 268.136 5.198,267.841 5.185,267.293 4.966 C 265.933 4.421,262.763 4.880,262.517 5.656 C 262.253 6.489,264.923 7.049,266.828 6.561 C 267.537 6.379,267.606 6.390,268.177 6.765 C 269.420 7.582,270.824 7.684,271.447 7.002 C 271.844 6.568,271.944 6.532,272.508 6.622 C 272.851 6.677,273.433 6.645,273.802 6.553 C 274.922 6.271,275.105 6.391,274.540 7.035 L 274.060 7.581 274.453 8.133 C 274.762 8.568,274.826 8.793,274.749 9.190 C 274.565 10.148,274.553 10.153,272.333 10.153 C 270.423 10.153,270.305 10.170,270.305 10.451 C 270.305 10.641,270.440 10.781,270.676 10.837 C 271.201 10.961,271.231 11.234,270.752 11.548 C 270.420 11.766,269.926 11.828,268.186 11.871 C 266.802 11.906,265.757 12.010,265.267 12.163 C 264.700 12.340,263.580 12.419,260.916 12.470 C 258.357 12.519,257.167 12.601,256.766 12.753 C 255.670 13.169,254.194 13.223,254.097 12.851 C 253.957 12.315,253.525 12.326,251.802 12.911 C 249.851 13.574,250.068 13.421,249.914 14.248 C 249.621 15.813,248.520 16.837,247.070 16.892 C 246.456 16.915,245.788 17.069,245.162 17.333 C 243.302 18.118,241.005 18.931,240.649 18.931 C 240.452 18.931,240.071 19.044,239.804 19.183 C 239.536 19.321,238.870 19.589,238.323 19.778 C 237.776 19.967,236.332 20.478,235.115 20.912 C 233.897 21.346,232.695 21.758,232.443 21.826 C 232.191 21.894,231.676 22.093,231.298 22.269 C 230.920 22.445,230.517 22.590,230.403 22.592 C 230.158 22.596,227.331 23.671,226.070 24.240 C 225.239 24.615,224.903 25.001,225.114 25.342 C 225.288 25.624,225.796 25.502,227.023 24.885 C 228.211 24.288,228.855 24.126,228.855 24.423 C 228.855 24.594,226.146 26.870,225.943 26.870 C 225.870 26.870,225.275 27.301,224.622 27.828 C 223.969 28.354,223.160 28.951,222.824 29.155 C 222.489 29.359,221.856 29.804,221.418 30.144 C 220.980 30.485,220.259 31.038,219.815 31.374 C 219.371 31.710,218.512 32.458,217.906 33.036 C 216.452 34.424,215.805 34.214,214.717 32.003 C 214.129 30.810,213.774 30.577,212.957 30.846 C 212.470 31.007,212.286 31.011,212.086 30.864 C 211.946 30.762,211.549 30.492,211.203 30.263 C 210.857 30.034,210.445 29.611,210.287 29.323 C 210.034 28.860,209.700 28.564,208.279 27.539 C 207.958 27.307,207.884 27.308,207.251 27.549 C 205.632 28.168,205.587 28.698,207.110 29.230 C 207.921 29.514,208.050 29.619,208.350 30.244 C 208.798 31.178,209.786 32.061,210.382 32.061 C 210.634 32.061,210.840 32.100,210.840 32.147 C 210.840 32.333,210.517 32.820,210.072 33.307 C 209.816 33.587,209.501 33.942,209.372 34.095 C 209.158 34.350,209.110 34.353,208.806 34.137 C 208.623 34.006,207.821 33.508,207.023 33.028 C 205.345 32.020,204.706 31.530,203.613 30.419 C 202.977 29.771,202.727 29.616,202.322 29.617 C 201.648 29.619,200.637 29.095,200.076 28.454 C 199.824 28.166,199.382 27.812,199.093 27.668 C 198.562 27.402,198.431 27.152,198.247 26.054 C 198.184 25.676,197.962 25.280,197.625 24.943 C 196.828 24.146,196.409 23.245,196.686 22.924 C 197.265 22.256,197.015 20.916,196.311 20.916 C 196.139 20.916,195.857 20.737,195.685 20.518 C 195.493 20.274,194.389 19.649,192.838 18.906 C 189.570 17.341,189.872 17.525,188.170 16.066 C 187.360 15.371,186.280 14.593,185.771 14.336 L 184.845 13.868 185.285 13.604 C 185.991 13.179,186.200 13.140,186.786 13.320 C 187.378 13.502,187.897 13.244,187.666 12.883 C 187.487 12.602,184.463 10.702,184.009 10.585 L 183.588 10.476 184.122 10.352 C 184.416 10.283,185.246 10.268,185.967 10.318 C 187.877 10.452,188.486 9.761,186.829 9.340 C 184.530 8.755,181.296 9.006,180.544 9.826 C 180.221 10.179,179.897 10.382,179.656 10.382 C 179.448 10.382,179.081 10.536,178.841 10.725 C 178.480 11.009,178.191 11.074,177.179 11.098 C 176.505 11.113,175.725 11.174,175.446 11.231 C 175.002 11.323,174.867 11.268,174.377 10.796 L 173.817 10.256 171.908 10.153 C 169.425 10.019,167.429 9.987,165.725 10.053 C 163.677 10.133,162.918 9.901,163.397 9.342 C 163.742 8.939,163.817 8.587,163.596 8.404 C 163.332 8.185,155.694 8.221,155.010 8.445 C 153.502 8.938,152.089 7.259,152.687 5.685 C 152.807 5.369,152.775 5.257,152.508 5.055 C 151.456 4.259,151.374 4.152,151.374 3.563 L 151.374 2.977 150.305 2.953 C 149.718 2.941,148.975 2.982,148.654 3.046 M174.549 3.307 C 174.436 3.604,174.483 3.629,175.256 3.685 C 176.163 3.749,176.218 3.453,175.335 3.251 C 174.761 3.120,174.617 3.130,174.549 3.307 M169.217 3.323 C 169.033 3.442,169.038 3.729,169.235 4.556 C 169.356 5.063,169.361 5.066,170.060 4.967 C 171.008 4.834,171.298 4.740,171.298 4.566 C 171.298 4.386,170.557 4.090,170.380 4.200 C 170.164 4.333,170.038 3.665,170.235 3.428 C 170.438 3.184,169.569 3.094,169.217 3.323 M172.176 4.084 C 172.029 4.117,171.908 4.208,171.908 4.286 C 171.908 4.450,172.023 4.451,172.433 4.290 C 172.774 4.157,172.572 3.994,172.176 4.084 M156.489 4.294 C 156.146 4.432,156.134 4.463,156.372 4.597 C 156.677 4.768,157.905 4.466,157.772 4.252 C 157.666 4.080,156.966 4.103,156.489 4.294 M252.977 7.748 C 252.977 7.811,253.177 7.863,253.421 7.863 C 253.664 7.863,253.832 7.811,253.793 7.748 C 253.754 7.685,253.555 7.634,253.350 7.634 C 253.145 7.634,252.977 7.685,252.977 7.748 M248.397 8.343 C 248.187 8.454,247.806 8.546,247.550 8.547 C 247.294 8.549,247.002 8.632,246.901 8.733 C 246.800 8.834,246.717 8.851,246.717 8.771 C 246.717 8.691,246.579 8.851,246.412 9.126 C 245.700 10.293,246.968 10.534,247.995 9.426 C 248.423 8.964,248.629 8.885,248.495 9.234 C 248.423 9.421,248.459 9.430,248.696 9.282 C 249.374 8.858,249.093 7.975,248.397 8.343 M188.618 9.632 C 188.577 9.697,188.618 9.795,188.707 9.850 C 188.820 9.920,188.814 10.018,188.688 10.170 C 188.439 10.470,188.487 10.494,189.693 10.687 C 190.275 10.780,190.828 10.919,190.921 10.997 C 191.015 11.074,191.244 11.108,191.431 11.072 C 191.633 11.034,191.805 11.095,191.854 11.223 C 191.899 11.342,192.061 11.478,192.212 11.526 C 192.396 11.585,192.462 11.713,192.409 11.914 C 192.350 12.142,192.408 12.214,192.654 12.214 C 192.832 12.214,192.977 12.138,192.977 12.045 C 192.977 11.855,193.761 11.999,193.893 12.214 C 193.937 12.284,194.154 12.388,194.376 12.444 C 194.598 12.499,194.936 12.711,195.127 12.914 C 195.463 13.272,195.878 13.408,195.878 13.160 C 195.878 12.899,194.854 12.061,194.535 12.061 C 194.350 12.061,194.198 12.005,194.198 11.937 C 194.198 11.614,193.498 11.128,192.707 10.902 C 191.836 10.654,191.018 10.243,190.482 9.786 C 190.189 9.536,188.750 9.417,188.618 9.632 M241.586 11.044 C 239.861 11.950,239.306 12.669,240.683 12.215 C 240.990 12.114,241.374 12.065,241.537 12.108 C 241.699 12.150,241.832 12.123,241.832 12.047 C 241.832 11.971,241.979 11.908,242.158 11.908 C 242.629 11.908,243.283 11.124,242.962 10.944 C 242.832 10.871,242.685 10.852,242.636 10.901 C 242.587 10.950,242.472 10.928,242.380 10.852 C 242.276 10.766,241.977 10.838,241.586 11.044 M238.867 12.593 C 238.538 12.711,238.066 13.008,237.820 13.255 L 237.371 13.703 237.922 13.767 C 238.225 13.803,238.473 13.784,238.473 13.725 C 238.473 13.666,238.675 13.547,238.922 13.461 C 239.171 13.374,239.477 13.097,239.612 12.836 C 239.893 12.293,239.797 12.262,238.867 12.593 M113.979 12.823 C 112.862 13.038,112.406 14.046,113.425 14.046 C 114.186 14.046,114.622 13.877,115.161 13.375 C 115.859 12.725,115.458 12.538,113.979 12.823 M232.284 15.735 C 232.229 15.824,232.036 15.966,231.855 16.051 C 231.675 16.135,231.286 16.337,230.992 16.499 C 230.698 16.661,230.177 16.794,229.834 16.794 C 229.191 16.794,227.530 17.511,227.172 17.943 C 227.069 18.067,226.919 18.168,226.837 18.168 C 226.388 18.168,225.760 18.829,226.025 19.023 C 226.171 19.129,226.245 19.290,226.189 19.379 C 225.777 20.047,230.806 17.863,231.450 17.094 C 231.576 16.944,231.811 16.798,231.972 16.769 C 232.271 16.717,232.837 15.895,232.719 15.687 C 232.625 15.522,232.401 15.546,232.284 15.735 M224.569 19.440 C 224.352 19.538,223.961 19.790,223.700 20.000 C 223.439 20.210,223.043 20.510,222.821 20.666 C 222.168 21.125,222.588 21.256,223.596 20.908 C 224.295 20.667,224.583 20.472,224.847 20.058 C 225.374 19.235,225.314 19.102,224.569 19.440 M105.490 22.470 C 103.845 23.719,103.752 24.052,105.169 23.626 C 106.824 23.127,106.901 23.086,106.795 22.753 C 106.743 22.589,106.768 22.328,106.851 22.173 C 107.260 21.410,106.735 21.524,105.490 22.470 M196.365 30.938 C 197.147 31.411,198.480 32.264,199.327 32.832 C 201.151 34.054,202.596 34.809,203.111 34.809 C 203.759 34.809,204.818 36.010,205.430 37.438 C 205.729 38.134,206.050 38.860,206.145 39.052 C 206.284 39.333,206.265 39.492,206.050 39.855 C 205.751 40.361,205.814 40.742,206.263 41.149 C 207.005 41.819,205.938 42.999,204.874 42.685 C 204.087 42.452,202.595 40.439,202.595 39.609 C 202.595 39.501,202.362 39.107,202.077 38.733 C 201.791 38.359,201.481 37.910,201.387 37.734 C 201.067 37.137,199.875 36.564,199.359 36.759 C 198.917 36.925,198.473 36.870,198.473 36.649 C 198.473 36.483,196.993 34.996,195.988 34.152 L 195.115 33.418 195.115 32.453 C 195.115 31.781,195.045 31.430,194.885 31.298 C 194.645 31.098,194.593 30.724,194.749 30.318 C 194.870 30.003,194.742 29.954,196.365 30.938 M339.695 53.437 C 339.551 53.532,339.523 53.630,339.618 53.702 C 339.702 53.765,339.785 54.008,339.802 54.241 C 339.820 54.474,339.940 54.771,340.070 54.901 C 340.199 55.030,340.305 55.252,340.305 55.393 C 340.305 55.684,341.324 56.082,341.469 55.848 C 341.635 55.579,341.378 55.012,340.835 54.454 C 340.535 54.144,340.336 53.815,340.393 53.722 C 340.584 53.413,340.059 53.198,339.695 53.437 M167.328 58.946 C 168.126 59.125,169.559 59.504,170.513 59.788 C 172.558 60.398,172.483 60.392,172.915 59.987 C 173.182 59.736,173.316 59.702,173.551 59.828 C 173.715 59.915,174.301 60.059,174.854 60.148 C 177.262 60.532,180.153 62.447,180.153 63.657 C 180.153 64.296,181.592 65.270,182.330 65.131 C 182.869 65.030,184.951 67.094,185.909 68.679 C 186.095 68.986,186.414 69.374,186.618 69.542 C 187.090 69.929,187.632 70.823,187.635 71.221 C 187.639 71.670,188.766 72.814,189.312 72.924 C 189.887 73.039,192.025 75.253,192.140 75.853 C 192.183 76.076,192.320 76.683,192.445 77.201 C 192.570 77.718,192.672 78.436,192.672 78.796 C 192.672 79.321,192.765 79.548,193.141 79.935 C 193.467 80.271,193.624 80.598,193.657 81.006 C 193.689 81.411,193.810 81.664,194.050 81.827 C 194.241 81.956,194.669 82.318,195.001 82.632 L 195.605 83.202 195.499 84.394 C 195.441 85.050,195.392 87.988,195.390 90.923 L 195.387 96.260 194.937 98.092 C 194.591 99.503,194.456 100.505,194.354 102.454 C 194.249 104.446,194.149 105.176,193.885 105.889 C 193.700 106.387,193.423 107.137,193.268 107.557 C 192.450 109.780,193.866 111.590,195.408 110.292 C 195.950 109.836,195.991 109.445,195.646 108.015 C 195.072 105.638,195.967 102.575,197.978 100.039 C 198.460 99.431,198.993 98.711,199.161 98.440 C 199.341 98.150,199.830 97.755,200.343 97.484 C 200.913 97.184,201.598 96.609,202.302 95.840 C 203.627 94.392,203.851 94.407,204.001 95.953 C 204.057 96.521,204.416 96.614,204.993 96.208 C 205.921 95.557,208.114 95.679,208.306 96.393 C 208.556 97.322,207.728 102.661,207.080 104.303 C 206.656 105.377,206.674 105.802,207.144 105.802 C 207.574 105.802,208.099 105.148,208.393 104.245 C 208.694 103.321,209.160 103.036,209.160 103.775 C 209.160 104.636,210.045 104.882,210.687 104.198 C 211.457 103.379,211.681 104.039,210.921 104.885 C 210.732 105.095,210.418 105.558,210.224 105.914 C 210.029 106.270,209.750 106.599,209.604 106.646 C 208.526 106.988,208.237 108.018,208.931 109.040 C 209.354 109.663,209.427 110.501,209.145 111.513 C 208.732 113.003,210.236 114.656,212.004 114.656 C 213.196 114.656,213.425 114.838,214.336 116.500 C 215.672 118.937,217.336 118.771,219.147 116.020 C 220.095 114.579,220.296 114.249,220.484 113.817 C 220.594 113.565,221.028 112.945,221.449 112.438 C 221.869 111.932,222.523 111.079,222.901 110.544 C 223.279 110.008,223.992 109.117,224.487 108.563 C 224.982 108.010,225.780 107.042,226.260 106.412 C 227.290 105.062,228.090 104.220,229.108 103.413 C 229.564 103.051,229.847 102.707,229.842 102.519 C 229.818 101.478,231.170 100.310,231.771 100.853 C 232.140 101.188,232.650 100.998,232.755 100.486 C 232.802 100.261,232.914 99.825,233.004 99.519 C 233.097 99.205,233.123 98.654,233.064 98.259 C 232.959 97.560,232.960 97.557,233.407 97.557 C 234.010 97.557,234.257 97.229,234.136 96.588 C 234.068 96.221,234.107 96.017,234.272 95.880 C 234.704 95.522,234.292 94.125,233.046 91.720 C 232.547 90.757,232.574 90.165,233.188 88.582 C 234.766 84.514,235.718 83.607,236.729 85.209 C 237.658 86.680,239.057 86.345,238.467 84.793 C 238.212 84.123,238.376 83.911,238.927 84.196 C 239.664 84.577,240.085 84.374,240.372 83.497 C 240.661 82.614,240.466 82.024,239.782 81.712 C 239.030 81.369,239.413 80.883,242.214 78.625 C 243.053 77.949,244.187 77.033,244.733 76.591 C 245.279 76.150,245.897 75.673,246.107 75.533 C 246.317 75.393,246.969 74.896,247.557 74.429 C 248.145 73.963,248.869 73.419,249.167 73.221 C 249.464 73.023,250.201 72.408,250.804 71.854 C 251.655 71.073,252.303 70.656,253.699 69.990 C 254.687 69.519,256.115 68.832,256.870 68.463 C 257.626 68.094,258.652 67.653,259.150 67.483 C 259.648 67.312,260.286 67.037,260.568 66.871 C 261.048 66.587,262.723 66.108,264.001 65.888 C 264.312 65.834,264.930 65.543,265.375 65.240 C 267.303 63.929,269.368 63.274,271.450 63.314 C 272.815 63.340,285.687 63.380,288.348 63.367 L 290.512 63.356 291.403 63.877 C 291.893 64.164,292.689 64.706,293.172 65.081 C 293.723 65.510,294.274 65.799,294.652 65.859 C 294.983 65.912,295.576 66.127,295.970 66.337 C 296.364 66.546,296.790 66.718,296.915 66.718 C 297.685 66.718,303.040 72.261,303.530 73.565 C 303.614 73.788,303.944 74.244,304.265 74.580 C 304.585 74.916,304.891 75.376,304.944 75.603 C 304.997 75.831,305.241 76.133,305.491 76.281 C 305.738 76.427,306.023 76.743,306.122 76.983 C 306.221 77.223,306.499 77.521,306.739 77.645 C 307.264 77.916,307.271 77.970,306.837 78.432 C 306.419 78.877,306.605 79.287,307.259 79.364 C 308.264 79.483,309.466 80.727,309.466 81.651 C 309.466 81.808,309.613 82.068,309.793 82.228 C 310.254 82.639,310.680 83.638,310.684 84.319 C 310.686 84.637,310.832 85.183,311.010 85.531 C 311.421 86.337,311.908 88.086,311.908 88.757 C 311.908 89.042,312.012 89.569,312.139 89.929 C 312.484 90.906,312.707 94.498,312.729 99.420 C 312.742 102.336,312.803 103.857,312.913 103.967 C 313.165 104.219,313.537 104.002,313.917 103.383 L 314.260 102.824 314.390 104.046 C 314.461 104.718,314.470 105.782,314.411 106.412 C 314.351 107.042,314.279 107.866,314.250 108.244 C 314.134 109.784,313.583 113.432,313.303 114.513 C 313.139 115.148,312.964 116.029,312.915 116.470 C 312.866 116.914,312.650 117.571,312.433 117.942 C 312.189 118.359,312.009 118.946,311.956 119.497 C 311.910 119.983,311.579 121.412,311.220 122.672 C 310.861 123.931,310.521 125.186,310.462 125.459 C 310.404 125.733,310.230 126.024,310.076 126.107 C 309.526 126.401,309.313 126.743,309.313 127.329 C 309.313 128.283,309.079 128.688,308.337 129.016 C 307.082 129.571,306.290 130.613,305.673 132.519 C 305.133 134.190,304.194 136.922,303.443 139.008 C 303.050 140.099,302.568 141.439,302.372 141.985 C 300.971 145.891,299.809 147.864,297.695 149.924 C 296.962 150.637,296.168 151.505,295.930 151.852 C 295.691 152.198,294.983 153.160,294.356 153.989 C 293.729 154.818,292.718 156.286,292.111 157.252 C 291.504 158.218,290.815 159.275,290.580 159.602 C 290.345 159.929,289.912 160.585,289.618 161.060 C 289.324 161.536,288.823 162.333,288.505 162.832 C 287.935 163.726,286.730 165.849,285.700 167.774 C 285.411 168.313,284.981 169.000,284.743 169.301 C 284.505 169.601,284.060 170.260,283.755 170.763 C 283.450 171.267,282.778 172.332,282.262 173.130 C 281.745 173.927,280.641 175.679,279.808 177.023 C 278.976 178.366,278.138 179.672,277.947 179.924 C 276.507 181.826,274.195 185.558,272.744 188.321 C 272.392 188.992,271.815 190.090,271.464 190.760 C 271.112 191.430,270.730 192.082,270.615 192.210 C 270.500 192.338,269.763 193.782,268.977 195.420 C 268.191 197.057,267.258 198.882,266.904 199.475 C 266.549 200.067,266.258 200.617,266.256 200.696 C 266.254 200.775,265.946 201.286,265.571 201.832 C 263.814 204.392,263.158 205.335,262.549 206.183 C 262.187 206.687,261.723 207.390,261.518 207.746 C 261.313 208.101,260.516 209.441,259.748 210.723 C 258.980 212.005,257.997 213.672,257.565 214.427 C 256.431 216.408,253.483 222.431,253.362 223.014 C 253.305 223.285,253.190 223.551,253.105 223.603 C 253.021 223.655,252.815 223.982,252.648 224.330 C 252.013 225.648,251.666 226.249,251.342 226.594 C 251.158 226.790,250.893 227.224,250.753 227.558 C 250.614 227.892,250.325 228.372,250.111 228.625 C 249.898 228.877,249.560 229.451,249.361 229.900 C 249.162 230.349,248.770 230.933,248.490 231.198 C 248.210 231.463,247.827 231.989,247.639 232.366 C 247.450 232.744,247.070 233.294,246.795 233.588 C 246.107 234.322,244.886 236.389,244.885 236.821 C 244.885 237.016,244.739 237.414,244.562 237.704 C 244.385 237.995,244.005 238.785,243.718 239.460 C 243.431 240.135,243.067 240.962,242.910 241.298 C 242.752 241.634,242.438 242.410,242.211 243.023 C 241.846 244.009,241.704 244.207,240.962 244.755 C 240.501 245.096,239.993 245.596,239.833 245.868 C 239.673 246.139,239.283 246.569,238.967 246.823 C 238.651 247.077,238.188 247.587,237.940 247.956 C 236.880 249.526,236.209 250.183,235.456 250.384 C 234.315 250.691,233.578 251.165,233.068 251.922 C 232.808 252.308,232.254 253.052,231.836 253.576 C 230.733 254.960,229.273 257.559,228.853 258.884 C 228.752 259.204,228.360 260.118,227.982 260.914 C 227.605 261.711,227.158 262.810,226.989 263.357 C 226.510 264.914,226.185 265.425,224.524 267.237 C 221.215 270.847,219.186 274.270,218.632 277.176 C 218.536 277.679,218.393 278.423,218.313 278.828 C 218.055 280.138,218.110 280.454,218.627 280.634 C 219.079 280.792,219.085 280.806,219.026 281.733 C 218.883 284.002,218.749 285.218,218.476 286.718 C 217.837 290.227,217.813 290.489,217.917 292.767 L 218.018 295.007 217.536 296.053 C 216.862 297.515,216.583 297.468,215.586 295.725 C 214.771 294.302,212.446 291.087,210.451 288.626 C 209.974 288.038,208.109 286.052,206.306 284.213 C 204.503 282.373,202.748 280.484,202.405 280.014 C 202.063 279.545,201.499 278.851,201.154 278.473 C 200.808 278.095,200.370 277.534,200.181 277.225 L 199.837 276.664 200.147 275.780 C 200.640 274.378,200.528 273.481,199.829 273.240 C 199.500 273.127,198.679 273.638,198.553 274.035 C 198.389 274.551,198.112 274.400,197.742 273.594 C 197.551 273.177,197.235 272.645,197.039 272.411 C 196.581 271.863,194.453 267.683,193.675 265.801 C 193.344 265.004,192.513 263.080,191.827 261.527 C 191.141 259.973,190.526 258.534,190.460 258.328 C 190.339 257.945,189.244 255.690,187.788 252.824 C 186.808 250.895,185.278 248.189,184.809 247.556 C 184.622 247.304,184.217 246.617,183.908 246.030 C 183.148 244.583,181.899 242.626,181.083 241.603 C 180.713 241.140,180.094 240.220,179.709 239.560 C 178.793 237.992,177.871 236.592,177.148 235.669 C 176.827 235.260,176.313 234.510,176.006 234.001 C 175.698 233.492,175.207 232.865,174.915 232.607 C 174.622 232.349,174.095 231.760,173.743 231.298 C 173.391 230.836,172.365 229.668,171.462 228.702 C 170.559 227.737,169.414 226.472,168.918 225.892 C 168.421 225.312,167.696 224.522,167.306 224.136 C 166.916 223.751,166.074 222.748,165.435 221.908 C 164.797 221.069,164.031 220.073,163.734 219.695 C 161.741 217.158,160.240 214.985,159.253 213.206 C 158.512 211.871,156.119 208.682,154.728 207.176 C 154.379 206.798,153.636 205.836,153.076 205.038 C 151.818 203.245,150.991 202.146,150.117 201.107 C 149.746 200.666,149.196 199.945,148.894 199.504 C 148.071 198.301,145.908 195.829,144.275 194.225 C 139.902 189.932,139.098 189.174,138.509 188.784 C 138.153 188.549,137.863 188.303,137.863 188.237 C 137.863 188.172,137.399 187.757,136.832 187.315 C 136.265 186.874,135.458 186.186,135.038 185.787 C 134.324 185.108,132.385 183.538,130.860 182.404 C 130.493 182.131,129.841 181.597,129.410 181.215 C 128.979 180.834,128.024 180.023,127.288 179.412 C 125.857 178.225,125.206 177.435,124.061 175.496 C 123.664 174.824,123.109 173.897,122.828 173.435 C 122.547 172.973,121.401 171.576,120.281 170.329 C 118.020 167.814,117.409 166.799,116.435 163.949 C 115.620 161.564,114.133 158.792,112.953 157.455 C 112.181 156.582,110.888 153.276,110.693 151.679 C 110.562 150.613,109.127 145.004,108.769 144.161 C 108.393 143.278,107.786 141.112,107.786 140.656 C 107.786 140.431,107.719 139.865,107.637 139.399 C 107.501 138.626,107.230 136.200,106.851 132.370 C 106.413 127.949,107.809 121.626,110.200 117.193 C 110.534 116.574,110.878 115.767,110.964 115.400 C 111.051 115.033,111.334 114.046,111.594 113.206 C 111.853 112.366,112.267 110.911,112.513 109.972 C 112.759 109.033,113.109 107.973,113.291 107.616 C 113.474 107.259,113.791 106.516,113.997 105.964 C 114.203 105.413,114.565 104.617,114.801 104.196 C 115.194 103.494,115.409 102.894,116.307 100.000 C 116.675 98.812,117.970 95.650,118.599 94.404 C 118.846 93.913,119.188 93.059,119.359 92.507 C 119.529 91.954,119.852 91.233,120.076 90.904 C 120.301 90.575,120.831 89.586,121.255 88.707 C 121.679 87.827,122.203 86.831,122.421 86.493 C 123.178 85.317,124.477 83.583,125.137 82.869 C 125.503 82.474,125.802 82.081,125.802 81.997 C 125.802 81.913,126.174 81.426,126.630 80.916 C 127.514 79.924,128.221 78.953,129.129 77.481 C 129.909 76.218,132.420 73.763,133.534 73.175 C 134.490 72.671,137.024 71.760,137.499 71.750 C 137.657 71.746,138.164 71.540,138.626 71.292 C 139.088 71.043,139.560 70.840,139.676 70.840 C 140.453 70.840,143.165 69.531,143.640 68.927 C 143.973 68.504,145.375 67.916,148.931 66.708 C 149.687 66.451,151.061 65.875,151.985 65.427 C 152.908 64.980,153.929 64.575,154.253 64.527 C 155.094 64.405,157.204 63.378,157.479 62.959 C 157.878 62.350,161.523 59.657,162.824 59.009 C 163.813 58.517,165.320 58.496,167.328 58.946 M344.905 65.232 C 344.670 65.467,344.689 65.811,344.972 66.490 C 345.254 67.164,345.424 67.053,345.558 66.107 C 345.665 65.353,345.289 64.849,344.905 65.232 M347.589 70.042 C 347.216 70.454,347.517 72.214,347.960 72.214 C 348.356 72.214,348.485 71.811,348.271 71.245 C 348.146 70.915,348.143 70.750,348.259 70.678 C 348.498 70.530,348.362 69.858,348.082 69.805 C 347.951 69.780,347.729 69.887,347.589 70.042 M236.867 87.061 C 236.929 87.418,237.000 87.856,237.024 88.035 C 237.048 88.214,237.183 88.535,237.322 88.748 C 237.462 88.961,237.565 89.227,237.550 89.339 C 237.503 89.703,237.741 90.229,237.951 90.229 C 238.108 90.229,238.149 89.964,238.124 89.115 C 238.095 88.110,238.062 88.001,237.786 88.008 C 237.597 88.012,237.499 87.931,237.529 87.795 C 237.592 87.507,237.097 86.412,236.904 86.412 C 236.813 86.412,236.799 86.664,236.867 87.061 M240.410 87.580 C 240.355 87.634,240.342 87.823,240.380 88.000 C 240.418 88.176,240.488 88.561,240.536 88.855 C 240.666 89.655,240.686 89.723,240.868 89.946 C 240.961 90.060,241.067 90.610,241.104 91.168 C 241.148 91.827,241.280 92.354,241.480 92.669 L 241.787 93.155 242.111 92.646 C 242.290 92.366,242.523 92.014,242.630 91.864 C 242.796 91.630,242.772 91.550,242.463 91.315 C 242.175 91.096,242.132 90.981,242.253 90.749 C 242.337 90.587,242.350 90.323,242.282 90.153 C 242.214 89.985,242.154 89.551,242.148 89.188 C 242.139 88.601,242.104 88.540,241.832 88.626 C 241.650 88.684,241.527 88.653,241.527 88.551 C 241.527 88.456,241.582 88.413,241.649 88.454 C 241.715 88.496,241.870 88.465,241.992 88.386 C 242.142 88.289,242.032 88.270,241.654 88.327 C 241.138 88.405,241.100 88.385,241.179 88.083 C 241.292 87.653,240.715 87.275,240.410 87.580 M238.892 94.160 C 238.838 94.269,238.872 95.026,238.972 95.898 C 238.997 96.120,239.093 96.394,239.186 96.509 C 239.278 96.624,239.402 96.941,239.460 97.214 C 239.670 98.193,239.858 97.718,239.774 96.425 C 239.669 94.821,239.184 93.576,238.892 94.160 M241.627 96.947 C 241.695 97.324,241.739 97.961,241.725 98.361 C 241.711 98.778,241.761 99.051,241.843 99.001 C 241.921 98.953,241.985 98.823,241.985 98.712 C 241.985 98.601,242.072 98.438,242.180 98.349 C 242.478 98.101,242.490 97.405,242.196 97.405 C 242.023 97.405,241.985 97.327,242.064 97.137 C 242.369 96.413,242.335 96.213,241.912 96.237 C 241.514 96.259,241.507 96.276,241.627 96.947 M242.087 100.560 C 242.031 100.616,241.985 101.470,241.985 102.458 C 241.985 103.446,241.926 104.414,241.854 104.608 C 241.650 105.162,241.505 106.291,241.650 106.201 C 241.722 106.157,241.865 105.620,241.969 105.007 C 242.072 104.394,242.229 103.506,242.317 103.032 C 242.424 102.458,242.427 102.081,242.325 101.900 C 242.242 101.751,242.209 101.365,242.252 101.043 C 242.329 100.469,242.290 100.356,242.087 100.560 M56.776 100.878 C 56.766 101.025,56.769 101.207,56.784 101.284 C 56.798 101.360,56.721 101.479,56.611 101.549 C 56.462 101.643,56.480 101.675,56.679 101.677 C 56.826 101.678,56.952 101.594,56.958 101.489 C 56.964 101.384,56.998 101.143,57.033 100.954 C 57.069 100.765,57.029 100.611,56.946 100.611 C 56.862 100.611,56.786 100.731,56.776 100.878 M241.152 106.832 C 241.021 107.172,241.054 107.481,241.221 107.481 C 241.305 107.481,241.374 107.357,241.374 107.206 C 241.374 107.055,241.445 106.860,241.532 106.774 C 241.640 106.665,241.619 106.616,241.462 106.616 C 241.337 106.616,241.197 106.713,241.152 106.832 M47.607 141.708 C 46.818 141.918,46.658 142.365,47.415 142.242 C 47.977 142.150,48.397 141.902,48.397 141.661 C 48.397 141.506,48.357 141.508,47.607 141.708 M337.557 143.726 C 337.557 143.934,337.489 144.147,337.405 144.198 C 337.321 144.250,337.256 144.409,337.261 144.551 C 337.269 144.776,337.293 144.772,337.452 144.517 C 337.552 144.357,337.752 144.101,337.897 143.948 C 338.147 143.685,338.146 143.663,337.859 143.510 C 337.596 143.369,337.557 143.397,337.557 143.726 M336.882 145.426 C 336.820 145.674,336.865 145.894,337.006 146.036 C 337.200 146.230,337.241 146.200,337.328 145.804 C 337.491 145.058,337.065 144.697,336.882 145.426 M336.641 146.641 C 336.641 146.767,336.641 146.905,336.641 146.947 C 336.641 146.989,336.691 147.006,336.752 146.985 C 336.926 146.925,336.963 146.412,336.793 146.412 C 336.709 146.412,336.641 146.515,336.641 146.641 M335.453 154.389 C 335.140 154.771,335.169 155.420,335.500 155.420 C 335.728 155.420,336.031 154.849,336.031 154.418 C 336.031 154.148,335.666 154.130,335.453 154.389 M333.205 156.796 C 333.152 156.882,333.045 156.912,332.967 156.864 C 332.888 156.815,332.824 156.986,332.824 157.243 C 332.824 157.879,333.203 157.835,333.560 157.157 C 333.783 156.732,333.453 156.395,333.205 156.796 M334.237 157.506 C 334.132 157.548,334.046 157.761,334.046 157.978 C 334.046 158.431,333.016 160.625,332.717 160.809 C 332.608 160.876,332.519 161.094,332.519 161.293 C 332.519 161.492,332.399 161.863,332.253 162.118 C 332.033 162.501,332.022 162.617,332.187 162.780 C 332.309 162.900,332.369 162.910,332.339 162.805 C 332.312 162.711,332.462 162.435,332.672 162.193 C 332.882 161.952,333.135 161.582,333.236 161.373 C 333.703 160.397,334.163 159.271,334.264 158.856 C 334.325 158.605,334.433 158.364,334.504 158.321 C 334.574 158.277,334.680 158.053,334.737 157.823 C 334.843 157.402,334.707 157.316,334.237 157.506 M332.986 158.762 C 332.862 158.994,332.890 159.066,333.133 159.129 C 333.448 159.211,333.550 159.020,333.280 158.853 C 333.195 158.801,333.164 158.694,333.213 158.615 C 333.261 158.537,333.264 158.473,333.220 158.473 C 333.177 158.473,333.071 158.603,332.986 158.762 M331.494 164.394 C 331.395 164.622,331.270 165.015,331.216 165.267 L 331.117 165.725 331.428 165.277 C 331.599 165.030,331.699 164.765,331.651 164.687 C 331.603 164.610,331.658 164.488,331.773 164.417 C 331.914 164.330,331.932 164.237,331.828 164.133 C 331.724 164.029,331.615 164.114,331.494 164.394 M330.803 166.020 C 330.658 166.127,330.584 166.258,330.639 166.313 C 330.693 166.367,330.589 166.412,330.407 166.412 C 330.064 166.412,330.000 166.528,330.193 166.799 C 330.408 167.101,331.299 166.811,331.295 166.440 C 331.291 165.974,331.095 165.807,330.803 166.020 M329.461 169.097 C 329.379 169.311,329.313 169.550,329.313 169.628 C 329.313 169.707,329.183 169.771,329.024 169.771 C 328.865 169.771,328.697 169.871,328.650 169.992 C 328.593 170.140,328.639 170.185,328.786 170.129 C 329.036 170.033,329.092 170.312,328.852 170.460 C 328.767 170.512,328.739 170.623,328.790 170.705 C 328.886 170.860,329.321 170.596,329.283 170.405 C 329.249 170.231,329.631 169.399,329.865 169.141 C 330.063 168.922,330.061 168.882,329.849 168.800 C 329.685 168.737,329.562 168.831,329.461 169.097 M331.005 174.905 C 330.811 175.150,330.687 175.532,330.687 175.880 C 330.687 176.194,330.573 176.717,330.433 177.042 C 330.293 177.368,330.167 177.764,330.151 177.924 C 330.136 178.083,330.010 178.297,329.871 178.398 C 329.570 178.619,329.534 179.084,329.819 179.084 C 330.063 179.084,330.687 178.269,330.687 177.950 C 330.687 177.738,330.992 176.939,331.320 176.294 C 331.824 175.302,331.570 174.185,331.005 174.905 M308.439 218.122 C 308.189 218.441,307.939 218.890,307.883 219.119 C 307.828 219.348,307.302 220.030,306.715 220.634 C 306.129 221.239,305.649 221.813,305.649 221.912 C 305.649 222.010,305.511 222.214,305.344 222.366 C 305.176 222.518,305.038 222.737,305.038 222.853 C 305.038 222.968,304.936 223.102,304.810 223.151 C 304.685 223.199,304.617 223.295,304.660 223.364 C 304.703 223.434,304.668 223.534,304.583 223.586 C 304.342 223.735,304.400 224.122,304.662 224.122 C 304.791 224.122,305.066 224.011,305.273 223.876 C 305.504 223.724,305.649 223.695,305.649 223.799 C 305.649 223.893,305.718 223.969,305.802 223.969 C 305.885 223.969,305.954 223.798,305.954 223.588 C 305.954 223.271,306.027 223.206,306.386 223.206 C 306.911 223.206,307.565 222.576,307.423 222.206 C 307.361 222.046,307.228 221.987,307.060 222.044 C 306.914 222.095,307.028 221.933,307.315 221.685 C 307.601 221.437,307.893 221.270,307.964 221.313 C 308.034 221.357,308.092 221.312,308.092 221.214 C 308.092 221.116,308.195 221.076,308.321 221.124 C 308.454 221.175,308.550 221.126,308.550 221.006 C 308.550 220.893,308.447 220.715,308.321 220.611 C 307.928 220.285,308.332 219.495,308.810 219.654 C 308.903 219.685,309.024 219.638,309.079 219.550 C 309.134 219.462,309.106 219.389,309.017 219.389 C 308.928 219.389,308.855 219.325,308.855 219.245 C 308.855 219.166,308.988 219.127,309.150 219.158 C 309.582 219.241,309.835 218.878,309.623 218.481 C 309.529 218.307,309.473 218.045,309.498 217.899 C 309.587 217.365,308.922 217.504,308.439 218.122 M302.005 226.772 C 301.641 227.160,301.445 228.023,301.687 228.173 C 301.767 228.222,301.832 228.190,301.832 228.101 C 301.832 228.012,301.935 227.939,302.061 227.939 C 302.187 227.939,302.290 227.843,302.290 227.726 C 302.290 227.609,302.398 227.472,302.529 227.422 C 302.797 227.319,302.781 226.548,302.510 226.459 C 302.421 226.430,302.194 226.571,302.005 226.772 M102.987 228.381 C 102.849 228.604,104.412 230.032,106.010 231.142 C 106.189 231.267,106.391 231.456,106.459 231.564 C 106.775 232.065,108.092 232.368,108.092 231.939 C 108.092 231.584,107.801 231.298,107.440 231.298 C 107.283 231.298,106.930 231.126,106.655 230.916 C 106.380 230.706,106.106 230.534,106.046 230.534 C 105.986 230.534,105.341 230.019,104.612 229.389 C 103.257 228.219,103.134 228.143,102.987 228.381 M290.260 243.857 C 289.409 244.889,288.421 246.584,288.625 246.662 C 289.000 246.806,289.274 246.619,289.711 245.924 C 289.938 245.563,290.250 245.081,290.405 244.854 C 290.832 244.227,290.701 243.322,290.260 243.857 M286.832 248.618 C 286.601 248.907,286.412 249.208,286.412 249.286 C 286.412 249.364,286.320 249.505,286.207 249.598 C 285.846 249.898,284.904 251.844,285.025 252.041 C 285.148 252.239,285.704 251.504,286.391 250.234 C 286.594 249.859,286.957 249.356,287.197 249.115 C 287.645 248.668,287.783 248.092,287.443 248.092 C 287.338 248.092,287.063 248.328,286.832 248.618 M283.359 254.218 C 283.359 254.313,283.132 254.708,282.854 255.096 C 282.250 255.940,282.100 256.295,282.297 256.416 C 282.377 256.466,282.443 256.434,282.443 256.345 C 282.443 256.256,282.550 256.183,282.681 256.183 C 282.812 256.183,282.876 256.115,282.824 256.031 C 282.773 255.947,282.820 255.878,282.930 255.878 C 283.044 255.877,283.144 255.675,283.163 255.403 C 283.203 254.833,283.448 254.504,283.831 254.504 C 284.019 254.504,284.083 254.427,284.025 254.275 C 283.923 254.009,283.359 253.962,283.359 254.218 M151.552 300.941 C 151.456 301.310,151.678 301.832,151.932 301.832 C 152.029 301.832,152.064 302.003,152.017 302.250 C 151.932 302.691,152.124 303.206,152.372 303.206 C 152.453 303.206,152.519 303.092,152.519 302.952 C 152.519 302.812,152.564 302.742,152.620 302.798 C 152.675 302.853,152.803 302.829,152.904 302.745 C 153.134 302.555,152.550 300.923,152.252 300.919 C 152.147 300.917,152.061 300.847,152.061 300.763 C 152.061 300.467,151.638 300.615,151.552 300.941 M260.069 310.031 C 259.830 310.686,259.618 311.324,259.599 311.450 C 259.579 311.576,259.493 311.920,259.406 312.214 C 259.320 312.508,259.045 313.504,258.796 314.427 C 258.548 315.351,258.268 316.305,258.176 316.547 C 258.006 316.990,258.083 317.557,258.312 317.557 C 258.553 317.557,258.786 317.129,258.781 316.697 C 258.773 316.085,258.944 315.068,259.086 314.885 C 259.228 314.703,259.767 313.010,260.155 311.527 C 260.308 310.939,260.518 310.162,260.620 309.800 C 260.969 308.559,260.541 308.739,260.069 310.031 M241.299 337.247 C 241.182 337.780,241.339 338.163,241.543 337.841 C 241.718 337.566,241.715 336.987,241.539 336.878 C 241.462 336.830,241.354 336.996,241.299 337.247"/>
</svg>