<svg viewBox="0 0 400 400" xmlns="http://www.w3.org/2000/svg">
    <title>Spotify Icon Drawn</title>
    <path d="M194.000 19.013 C 64.076 37.559,-11.674 153.014,19.588 284.847 C 37.531 360.515,103.779 390.110,224.505 376.393 C 255.206 372.904,266.433 369.630,299.756 354.446 C 319.395 345.497,374.893 285.042,381.636 265.252 C 393.183 231.363,383.508 154.123,361.598 105.283 C 338.875 54.630,253.250 10.555,194.000 19.013 M285.373 63.328 C 373.986 117.427,390.234 243.893,317.385 312.486 C 248.814 377.049,84.831 368.394,49.937 298.369 C 30.617 259.599,40.756 144.636,65.139 126.000 C 68.018 123.800,72.803 116.040,75.773 108.756 C 80.721 96.620,102.267 76.000,110.000 76.000 C 111.785 76.000,119.552 71.189,127.262 65.309 C 162.036 38.785,243.500 37.765,285.373 63.328 M138.000 137.638 C 99.960 145.332,72.289 163.524,79.899 175.836 C 82.876 180.653,85.655 180.503,98.696 174.818 C 161.263 147.547,278.113 155.712,316.004 190.004 C 322.899 196.244,323.630 196.165,327.594 188.759 C 345.943 154.472,221.142 120.822,138.000 137.638 M133.538 200.137 C 82.144 213.954,77.959 217.239,87.956 235.918 C 91.676 242.868,93.569 242.460,119.615 229.097 C 162.128 207.285,232.662 211.123,283.140 237.994 C 318.941 257.052,325.213 239.460,290.000 218.752 C 245.617 192.651,187.224 185.704,133.538 200.137 M133.806 251.673 C 94.640 260.017,90.700 262.097,95.848 271.717 C 97.977 275.694,98.432 280.290,96.859 281.931 C 95.287 283.572,102.100 283.588,112.000 281.967 C 121.900 280.346,131.037 277.391,132.304 275.400 C 146.265 253.465,257.900 268.544,278.140 295.098 C 281.527 299.542,283.653 299.013,289.822 292.196 C 300.134 280.802,284.685 264.056,257.123 256.751 C 246.605 253.963,232.472 249.954,225.716 247.841 C 207.878 242.263,170.696 243.814,133.806 251.673"/>
</svg>