<svg viewBox="0 0 400 400" xmlns="http://www.w3.org/2000/svg">
    <title>Youtube Icon Drawn</title>
    <path d="M154.000 21.521 C 37.837 51.126,-20.076 204.990,40.085 324.169 C 70.926 385.264,169.859 400.770,287.898 363.011 C 385.786 331.697,422.176 154.733,346.797 76.586 C 299.752 27.813,219.379 4.858,154.000 21.521 M255.966 47.022 C 331.678 78.352,355.820 107.069,363.400 174.821 C 376.230 289.502,300.986 358.548,164.000 357.794 C 83.227 357.349,29.344 295.442,38.796 213.945 C 39.558 207.375,40.997 194.835,41.994 186.079 C 47.372 138.852,102.847 60.448,135.667 53.690 C 141.350 52.519,154.100 49.142,164.000 46.184 C 187.468 39.171,238.109 39.633,255.966 47.022 M146.000 104.827 C 107.904 108.673,87.136 116.388,80.956 128.990 C 71.566 148.135,75.331 260.664,85.709 271.042 C 93.061 278.394,305.964 277.712,324.216 270.278 C 352.532 258.744,350.339 119.174,321.714 111.131 C 303.963 106.143,177.798 101.616,146.000 104.827 M263.095 130.497 C 291.093 134.071,315.467 139.021,317.261 141.497 C 322.792 149.135,316.577 245.138,310.134 251.581 C 303.919 257.795,189.176 260.878,132.000 256.367 L 102.000 254.000 96.650 238.000 C 87.341 210.161,98.150 143.413,113.278 135.316 C 117.822 132.884,139.644 129.610,161.770 128.040 C 183.897 126.471,204.293 124.919,207.095 124.593 C 209.897 124.267,235.097 126.924,263.095 130.497 M172.138 151.741 C 166.088 163.047,166.793 230.019,173.017 235.184 C 178.497 239.732,225.539 219.439,243.897 204.608 C 255.660 195.105,251.543 188.411,220.956 167.312 C 191.753 147.168,177.089 142.491,172.138 151.741 M208.383 184.272 C 223.068 194.729,222.943 197.135,207.414 202.997 C 191.368 209.053,188.000 206.758,188.000 189.764 C 188.000 173.876,192.195 172.746,208.383 184.272"/>
</svg>